<svg width="26" height="16" viewBox="0 0 26 16" fill="none" xmlns="http://www.w3.org/2000/svg">
<mask id="path-1-outside-1_178_1542" maskUnits="userSpaceOnUse" x="0" y="0" width="26" height="16" fill="black">
<rect fill="white" width="26" height="16"/>
<path d="M2.03371 13L3.72406 2.81818H8.13883C8.9144 2.81818 9.5491 2.92259 10.0429 3.13139C10.5401 3.3402 10.8914 3.63518 11.0969 4.01633C11.3057 4.39749 11.367 4.84659 11.2809 5.36364C11.2146 5.73485 11.0721 6.07457 10.8533 6.38281C10.6379 6.68774 10.3644 6.94626 10.033 7.15838C9.70488 7.36719 9.33864 7.51136 8.93428 7.59091L8.9144 7.69034C9.3519 7.7036 9.73305 7.81297 10.0579 8.01847C10.3827 8.22064 10.6213 8.50237 10.7738 8.86364C10.9262 9.22159 10.9627 9.6392 10.8831 10.1165C10.7903 10.6733 10.5633 11.1688 10.202 11.603C9.84077 12.0372 9.37178 12.3786 8.79508 12.6271C8.21837 12.8757 7.56212 13 6.82633 13H2.03371ZM5.17576 10.7926H6.46837C6.92576 10.7926 7.28537 10.7048 7.54721 10.5291C7.81236 10.3535 7.96979 10.0966 8.01951 9.75852C8.05928 9.51989 8.0394 9.31771 7.95985 9.15199C7.88031 8.98627 7.74607 8.86032 7.55715 8.77415C7.36823 8.68797 7.13125 8.64489 6.84621 8.64489H5.51383L5.17576 10.7926ZM5.81212 6.93466H6.94565C7.18428 6.93466 7.40303 6.89654 7.6019 6.82031C7.80076 6.74408 7.96482 6.63305 8.09408 6.48722C8.22335 6.34138 8.30455 6.16572 8.33769 5.96023C8.38741 5.64205 8.31118 5.40009 8.109 5.23438C7.91014 5.06866 7.64167 4.9858 7.3036 4.9858H6.13031L5.81212 6.93466ZM17.1873 6C17.2172 5.67188 17.1376 5.41501 16.9487 5.2294C16.7598 5.04048 16.4416 4.94602 15.9941 4.94602C15.7091 4.94602 15.4705 4.97917 15.2782 5.04545C15.0893 5.11174 14.9418 5.20289 14.8358 5.31889C14.733 5.4349 14.6684 5.56913 14.6419 5.72159C14.612 5.84091 14.6137 5.95028 14.6468 6.04972C14.6833 6.14583 14.7512 6.23366 14.8507 6.31321C14.9534 6.39276 15.0877 6.46401 15.2534 6.52699C15.4224 6.58996 15.6229 6.64631 15.8549 6.69602L16.6504 6.875C17.194 6.99432 17.6497 7.15175 18.0176 7.3473C18.3888 7.53954 18.6805 7.76823 18.8926 8.03338C19.1047 8.29853 19.2439 8.59517 19.3102 8.9233C19.3798 9.25142 19.3815 9.60937 19.3152 9.99716C19.2025 10.6667 18.9423 11.2334 18.5346 11.6974C18.127 12.1615 17.595 12.5144 16.9387 12.7564C16.2825 12.9983 15.5235 13.1193 14.6618 13.1193C13.7801 13.1193 13.0311 12.9884 12.4146 12.7266C11.8014 12.4614 11.3573 12.0571 11.0822 11.5135C10.8104 10.9666 10.7441 10.2689 10.8833 9.42045H13.5083C13.4686 9.73201 13.5017 9.99384 13.6078 10.206C13.7138 10.4181 13.8845 10.5788 14.1199 10.6882C14.3552 10.7976 14.6485 10.8523 14.9998 10.8523C15.2981 10.8523 15.5533 10.8158 15.7654 10.7429C15.9776 10.67 16.1449 10.5689 16.2676 10.4396C16.3902 10.3104 16.4648 10.1629 16.4913 9.99716C16.5178 9.8447 16.4913 9.70881 16.4118 9.58949C16.3322 9.47017 16.188 9.36245 15.9792 9.26634C15.7704 9.17022 15.4837 9.08239 15.1191 9.00284L14.1447 8.78409C13.2797 8.58523 12.6267 8.2571 12.1859 7.79972C11.7451 7.34233 11.5893 6.71591 11.7186 5.92045C11.8246 5.27083 12.0914 4.70407 12.519 4.22017C12.9499 3.73295 13.4967 3.35511 14.1596 3.08665C14.8258 2.81487 15.5633 2.67898 16.372 2.67898C17.194 2.67898 17.8817 2.81652 18.4352 3.09162C18.992 3.36671 19.3914 3.75284 19.6333 4.25C19.8786 4.74716 19.9449 5.33049 19.8322 6H17.1873Z"/>
<path d="M23.9215 2.81818L22.5096 9.81818H20.2625L21.1573 2.81818H23.9215ZM20.9386 13.1591C20.5508 13.1591 20.2343 13.0249 19.989 12.7564C19.7471 12.4846 19.646 12.1548 19.6857 11.767C19.7255 11.3892 19.8962 11.0661 20.1978 10.7976C20.5027 10.5291 20.8491 10.3949 21.2369 10.3949C21.6048 10.3949 21.9114 10.5291 22.1566 10.7976C22.4052 11.0661 22.5096 11.3892 22.4698 11.767C22.4433 12.0256 22.3522 12.2609 22.1964 12.473C22.0439 12.6818 21.855 12.8492 21.6296 12.9751C21.4076 13.0978 21.1772 13.1591 20.9386 13.1591Z"/>
</mask>
<path d="M2.03371 13L3.72406 2.81818H8.13883C8.9144 2.81818 9.5491 2.92259 10.0429 3.13139C10.5401 3.3402 10.8914 3.63518 11.0969 4.01633C11.3057 4.39749 11.367 4.84659 11.2809 5.36364C11.2146 5.73485 11.0721 6.07457 10.8533 6.38281C10.6379 6.68774 10.3644 6.94626 10.033 7.15838C9.70488 7.36719 9.33864 7.51136 8.93428 7.59091L8.9144 7.69034C9.3519 7.7036 9.73305 7.81297 10.0579 8.01847C10.3827 8.22064 10.6213 8.50237 10.7738 8.86364C10.9262 9.22159 10.9627 9.6392 10.8831 10.1165C10.7903 10.6733 10.5633 11.1688 10.202 11.603C9.84077 12.0372 9.37178 12.3786 8.79508 12.6271C8.21837 12.8757 7.56212 13 6.82633 13H2.03371ZM5.17576 10.7926H6.46837C6.92576 10.7926 7.28537 10.7048 7.54721 10.5291C7.81236 10.3535 7.96979 10.0966 8.01951 9.75852C8.05928 9.51989 8.0394 9.31771 7.95985 9.15199C7.88031 8.98627 7.74607 8.86032 7.55715 8.77415C7.36823 8.68797 7.13125 8.64489 6.84621 8.64489H5.51383L5.17576 10.7926ZM5.81212 6.93466H6.94565C7.18428 6.93466 7.40303 6.89654 7.6019 6.82031C7.80076 6.74408 7.96482 6.63305 8.09408 6.48722C8.22335 6.34138 8.30455 6.16572 8.33769 5.96023C8.38741 5.64205 8.31118 5.40009 8.109 5.23438C7.91014 5.06866 7.64167 4.9858 7.3036 4.9858H6.13031L5.81212 6.93466ZM17.1873 6C17.2172 5.67188 17.1376 5.41501 16.9487 5.2294C16.7598 5.04048 16.4416 4.94602 15.9941 4.94602C15.7091 4.94602 15.4705 4.97917 15.2782 5.04545C15.0893 5.11174 14.9418 5.20289 14.8358 5.31889C14.733 5.4349 14.6684 5.56913 14.6419 5.72159C14.612 5.84091 14.6137 5.95028 14.6468 6.04972C14.6833 6.14583 14.7512 6.23366 14.8507 6.31321C14.9534 6.39276 15.0877 6.46401 15.2534 6.52699C15.4224 6.58996 15.6229 6.64631 15.8549 6.69602L16.6504 6.875C17.194 6.99432 17.6497 7.15175 18.0176 7.3473C18.3888 7.53954 18.6805 7.76823 18.8926 8.03338C19.1047 8.29853 19.2439 8.59517 19.3102 8.9233C19.3798 9.25142 19.3815 9.60937 19.3152 9.99716C19.2025 10.6667 18.9423 11.2334 18.5346 11.6974C18.127 12.1615 17.595 12.5144 16.9387 12.7564C16.2825 12.9983 15.5235 13.1193 14.6618 13.1193C13.7801 13.1193 13.0311 12.9884 12.4146 12.7266C11.8014 12.4614 11.3573 12.0571 11.0822 11.5135C10.8104 10.9666 10.7441 10.2689 10.8833 9.42045H13.5083C13.4686 9.73201 13.5017 9.99384 13.6078 10.206C13.7138 10.4181 13.8845 10.5788 14.1199 10.6882C14.3552 10.7976 14.6485 10.8523 14.9998 10.8523C15.2981 10.8523 15.5533 10.8158 15.7654 10.7429C15.9776 10.67 16.1449 10.5689 16.2676 10.4396C16.3902 10.3104 16.4648 10.1629 16.4913 9.99716C16.5178 9.8447 16.4913 9.70881 16.4118 9.58949C16.3322 9.47017 16.188 9.36245 15.9792 9.26634C15.7704 9.17022 15.4837 9.08239 15.1191 9.00284L14.1447 8.78409C13.2797 8.58523 12.6267 8.2571 12.1859 7.79972C11.7451 7.34233 11.5893 6.71591 11.7186 5.92045C11.8246 5.27083 12.0914 4.70407 12.519 4.22017C12.9499 3.73295 13.4967 3.35511 14.1596 3.08665C14.8258 2.81487 15.5633 2.67898 16.372 2.67898C17.194 2.67898 17.8817 2.81652 18.4352 3.09162C18.992 3.36671 19.3914 3.75284 19.6333 4.25C19.8786 4.74716 19.9449 5.33049 19.8322 6H17.1873Z" fill="white"/>
<path d="M23.9215 2.81818L22.5096 9.81818H20.2625L21.1573 2.81818H23.9215ZM20.9386 13.1591C20.5508 13.1591 20.2343 13.0249 19.989 12.7564C19.7471 12.4846 19.646 12.1548 19.6857 11.767C19.7255 11.3892 19.8962 11.0661 20.1978 10.7976C20.5027 10.5291 20.8491 10.3949 21.2369 10.3949C21.6048 10.3949 21.9114 10.5291 22.1566 10.7976C22.4052 11.0661 22.5096 11.3892 22.4698 11.767C22.4433 12.0256 22.3522 12.2609 22.1964 12.473C22.0439 12.6818 21.855 12.8492 21.6296 12.9751C21.4076 13.0978 21.1772 13.1591 20.9386 13.1591Z" fill="#FE4626"/>
<path d="M2.03371 13L0.0607189 12.6725C-0.0355284 13.2522 0.128078 13.8449 0.508084 14.2932C0.88809 14.7415 1.44603 15 2.03371 15L2.03371 13ZM3.72406 2.81818V0.818182C2.7459 0.818182 1.91126 1.52568 1.75106 2.49063L3.72406 2.81818ZM10.0429 3.13139L9.26407 4.9735L9.26848 4.97536L10.0429 3.13139ZM11.0969 4.01633L9.33644 4.96547L9.34289 4.97724L11.0969 4.01633ZM11.2809 5.36364L13.2497 5.71522C13.2511 5.70763 13.2524 5.70004 13.2537 5.69244L11.2809 5.36364ZM10.8533 6.38281L9.2223 5.22532L9.21987 5.22875L10.8533 6.38281ZM10.033 7.15838L11.1068 8.84571L11.1111 8.84292L10.033 7.15838ZM8.93428 7.59091L8.54824 5.62852C7.75377 5.78481 7.13191 6.4047 6.97312 7.19868L8.93428 7.59091ZM8.9144 7.69034L6.95323 7.29811C6.8378 7.87527 6.98247 8.47397 7.34869 8.93475C7.71491 9.39553 8.2655 9.6716 8.85382 9.68942L8.9144 7.69034ZM10.0579 8.01847L8.98858 9.70862C8.9927 9.71123 8.99684 9.71383 9.00098 9.71641L10.0579 8.01847ZM10.7738 8.86364L8.93113 9.64127L8.93372 9.64736L10.7738 8.86364ZM10.8831 10.1165L8.91036 9.78768L8.91036 9.78768L10.8831 10.1165ZM10.202 11.603L11.7394 12.8822L10.202 11.603ZM8.79508 12.6271L8.00342 10.7905L8.00342 10.7905L8.79508 12.6271ZM5.17576 10.7926L3.20009 10.4816C3.10916 11.0593 3.27559 11.6478 3.65557 12.0922C4.03555 12.5367 4.59101 12.7926 5.17576 12.7926V10.7926ZM7.54721 10.5291L6.4426 8.86179L6.43296 8.86826L7.54721 10.5291ZM8.01951 9.75852L6.04672 9.42972C6.04463 9.44231 6.04265 9.45491 6.04079 9.46754L8.01951 9.75852ZM7.95985 9.15199L9.7629 8.28653L9.7629 8.28652L7.95985 9.15199ZM7.55715 8.77415L6.72714 10.5938L6.72714 10.5938L7.55715 8.77415ZM5.51383 8.64489V6.64489C4.52932 6.64489 3.69124 7.36137 3.53815 8.3339L5.51383 8.64489ZM5.81212 6.93466L3.83826 6.61239C3.74371 7.19148 3.90823 7.78286 4.28823 8.22993C4.66823 8.677 5.22538 8.93466 5.81212 8.93466V6.93466ZM7.6019 6.82031L8.31777 8.68781L8.31777 8.6878L7.6019 6.82031ZM8.33769 5.96023L10.3122 6.27869L10.3137 6.26898L8.33769 5.96023ZM8.109 5.23438L6.82863 6.77082C6.83279 6.77428 6.83696 6.77773 6.84114 6.78116L8.109 5.23438ZM6.13031 4.9858V2.9858C5.15012 2.9858 4.31438 3.69616 4.15644 4.66353L6.13031 4.9858ZM4.00671 13.3275L5.69705 3.14573L1.75106 2.49063L0.0607189 12.6725L4.00671 13.3275ZM3.72406 4.81818H8.13883V0.818182H3.72406V4.81818ZM8.13883 4.81818C8.7566 4.81818 9.10088 4.9045 9.26407 4.9735L10.8218 1.28929C9.99733 0.940674 9.0722 0.818182 8.13883 0.818182V4.81818ZM9.26848 4.97536C9.36344 5.01524 9.3957 5.04297 9.39327 5.04093C9.3918 5.0397 9.38338 5.03235 9.3716 5.01804C9.35967 5.00355 9.34737 4.98566 9.33647 4.96545L12.8574 3.06722C12.3862 2.19324 11.6298 1.62865 10.8174 1.28743L9.26848 4.97536ZM9.34289 4.97724C9.335 4.96285 9.32859 4.9478 9.324 4.93371C9.31947 4.91978 9.3181 4.91101 9.3179 4.90958C9.31751 4.90672 9.32319 4.94421 9.30809 5.03484L13.2537 5.69244C13.3979 4.82727 13.317 3.90605 12.851 3.05543L9.34289 4.97724ZM9.31202 5.01206C9.29769 5.0923 9.27083 5.15694 9.2223 5.22532L12.4843 7.54031C12.8733 6.9922 13.1315 6.37739 13.2497 5.71522L9.31202 5.01206ZM9.21987 5.22875C9.1615 5.31137 9.08062 5.39338 8.9549 5.47384L11.1111 8.84292C11.6483 8.49914 12.1143 8.0641 12.4868 7.53688L9.21987 5.22875ZM8.95925 5.47106C8.85354 5.53833 8.72296 5.59415 8.54824 5.62852L9.32033 9.5533C9.95432 9.42858 10.5562 9.19604 11.1068 8.8457L8.95925 5.47106ZM6.97312 7.19868L6.95323 7.29811L10.8756 8.08257L10.8954 7.98314L6.97312 7.19868ZM8.85382 9.68942C8.92333 9.69153 8.96159 9.70039 8.97674 9.70473C8.99044 9.70866 8.99185 9.7107 8.98858 9.70862L11.1271 6.32831C10.4597 5.90605 9.71969 5.71383 8.97498 5.69126L8.85382 9.68942ZM9.00098 9.71641C8.99333 9.71164 8.97426 9.69757 8.95436 9.67408C8.93477 9.65096 8.92881 9.63575 8.93114 9.64126L12.6164 8.08601C12.3076 7.35432 11.7994 6.74671 11.1147 6.32053L9.00098 9.71641ZM8.93372 9.64736C8.92118 9.61792 8.92173 9.60422 8.92304 9.61925C8.92458 9.63689 8.92661 9.6902 8.91036 9.78768L12.8559 10.4453C12.9829 9.68357 12.9482 8.86502 12.6138 8.07991L8.93372 9.64736ZM8.91036 9.78768C8.87589 9.99448 8.79922 10.162 8.66463 10.3238L11.7394 12.8822C12.3274 12.1756 12.7048 11.3521 12.8559 10.4453L8.91036 9.78768ZM8.66463 10.3238C8.52627 10.4901 8.32391 10.6523 8.00342 10.7905L9.58674 14.4638C10.4197 14.1048 11.1553 13.5843 11.7394 12.8822L8.66463 10.3238ZM8.00342 10.7905C7.7159 10.9144 7.33603 11 6.82633 11V15C7.78822 15 8.72085 14.837 9.58674 14.4638L8.00342 10.7905ZM6.82633 11H2.03371V15H6.82633V11ZM5.17576 12.7926H6.46837V8.79261H5.17576V12.7926ZM6.46837 12.7926C7.15252 12.7926 7.95261 12.6655 8.66146 12.19L6.43296 8.86826C6.52775 8.80467 6.59714 8.78616 6.60659 8.78385C6.61124 8.78272 6.60301 8.78505 6.5793 8.7876C6.5556 8.79015 6.51918 8.79261 6.46837 8.79261V12.7926ZM8.6518 12.1964C9.42883 11.6816 9.87277 10.9026 9.99823 10.0495L6.04079 9.46754C6.04998 9.40505 6.07876 9.29043 6.15895 9.1596C6.24112 9.02553 6.34587 8.92592 6.44262 8.86182L8.6518 12.1964ZM9.9923 10.0873C10.0786 9.56971 10.0692 8.9247 9.7629 8.28653L6.1568 10.0174C6.00957 9.71071 6.04 9.47006 6.04672 9.42972L9.9923 10.0873ZM9.7629 8.28652C9.45447 7.64398 8.9435 7.20828 8.38716 6.95451L6.72714 10.5938C6.64871 10.558 6.54147 10.4954 6.43104 10.3918C6.31814 10.2858 6.22414 10.1577 6.15681 10.0175L9.7629 8.28652ZM8.38716 6.95451C7.85963 6.71388 7.31724 6.64489 6.84621 6.64489V10.6449C6.88988 10.6449 6.89863 10.6483 6.87996 10.6449C6.86083 10.6415 6.8051 10.6293 6.72714 10.5938L8.38716 6.95451ZM6.84621 6.64489H5.51383V10.6449H6.84621V6.64489ZM3.53815 8.3339L3.20009 10.4816L7.15143 11.1036L7.4895 8.95587L3.53815 8.3339ZM5.81212 8.93466H6.94565V4.93466H5.81212V8.93466ZM6.94565 8.93466C7.39967 8.93466 7.86452 8.86155 8.31777 8.68781L6.88603 4.95282C6.91218 4.94279 6.93293 4.93793 6.94537 4.93576C6.95743 4.93366 6.95837 4.93466 6.94565 4.93466V8.93466ZM8.31777 8.6878C8.78814 8.5075 9.22914 8.22183 9.59078 7.81383L6.59739 5.1606C6.70051 5.04426 6.81338 4.98067 6.88602 4.95282L8.31777 8.6878ZM9.59078 7.81383C9.98903 7.36452 10.2229 6.83209 10.3122 6.27869L6.36321 5.64176C6.37349 5.57803 6.39506 5.49658 6.43651 5.40689C6.47838 5.31632 6.53348 5.2327 6.59739 5.1606L9.59078 7.81383ZM10.3137 6.26898C10.4433 5.43993 10.2609 4.41219 9.37686 3.68759L6.84114 6.78116C6.65133 6.62557 6.49265 6.40267 6.41025 6.14114C6.33423 5.89986 6.35141 5.71715 6.36167 5.65147L10.3137 6.26898ZM9.38937 3.69793C8.73346 3.15134 7.96443 2.9858 7.3036 2.9858V6.9858C7.31891 6.9858 7.08681 6.98597 6.82863 6.77082L9.38937 3.69793ZM7.3036 2.9858H6.13031V6.9858H7.3036V2.9858ZM4.15644 4.66353L3.83826 6.61239L7.78599 7.25692L8.10417 5.30806L4.15644 4.66353ZM17.1873 6L15.1955 5.81893C15.1447 6.37854 15.3316 6.93374 15.7105 7.34868C16.0894 7.76361 16.6254 8 17.1873 8V6ZM16.9487 5.2294L15.5345 6.64362C15.5386 6.64779 15.5428 6.65194 15.547 6.65608L16.9487 5.2294ZM15.2782 5.04545L14.6262 3.15468L14.6161 3.15825L15.2782 5.04545ZM14.8358 5.31889L13.3597 3.96936C13.3526 3.97712 13.3456 3.98494 13.3386 3.99282L14.8358 5.31889ZM14.6419 5.72159L16.5822 6.20666C16.5939 6.15958 16.604 6.11209 16.6123 6.06427L14.6419 5.72159ZM14.6468 6.04972L12.7495 6.68217C12.7581 6.70797 12.7672 6.7336 12.7768 6.75903L14.6468 6.04972ZM14.8507 6.31321L13.6013 7.87495C13.6096 7.88158 13.6179 7.88815 13.6263 7.89466L14.8507 6.31321ZM15.2534 6.52699L14.5429 8.3966L14.5552 8.40115L15.2534 6.52699ZM15.8549 6.69602L16.294 4.7448C16.2873 4.74331 16.2807 4.74185 16.274 4.74042L15.8549 6.69602ZM16.6504 6.875L16.2114 8.82625L16.2216 8.82849L16.6504 6.875ZM18.0176 7.3473L17.0789 9.11333C17.0852 9.11668 17.0915 9.12 17.0979 9.12329L18.0176 7.3473ZM18.8926 8.03338L17.3308 9.28277L17.3308 9.28277L18.8926 8.03338ZM19.3102 8.9233L17.3498 9.31933C17.3511 9.32566 17.3524 9.33199 17.3537 9.3383L19.3102 8.9233ZM19.3152 9.99716L17.3438 9.66017L17.3429 9.66519L19.3152 9.99716ZM18.5346 11.6974L17.0321 10.3774L17.0321 10.3774L18.5346 11.6974ZM16.9387 12.7564L16.2469 10.8799L16.2469 10.8799L16.9387 12.7564ZM12.4146 12.7266L11.6208 14.5623L11.6327 14.5674L12.4146 12.7266ZM11.0822 11.5135L9.29119 12.4036C9.29335 12.4079 9.29553 12.4123 9.29773 12.4166L11.0822 11.5135ZM10.8833 9.42045V7.42045C9.90375 7.42045 9.06832 8.12999 8.90973 9.09666L10.8833 9.42045ZM13.5083 9.42045L15.4922 9.67372C15.565 9.10377 15.3891 8.53006 15.0094 8.09881C14.6297 7.66757 14.0829 7.42045 13.5083 7.42045V9.42045ZM13.6078 10.206L15.3966 9.31154L15.3966 9.31154L13.6078 10.206ZM14.1199 10.6882L13.2769 12.5019L13.2769 12.5019L14.1199 10.6882ZM16.2676 10.4396L14.8167 9.06311L14.8166 9.06311L16.2676 10.4396ZM16.4913 9.99716L14.5209 9.65448C14.5193 9.66337 14.5178 9.67227 14.5164 9.68118L16.4913 9.99716ZM16.4118 9.58949L14.7477 10.6989L16.4118 9.58949ZM15.9792 9.26634L15.1429 11.0831L15.1429 11.0831L15.9792 9.26634ZM15.1191 9.00284L14.6811 10.9543L14.6928 10.9569L15.1191 9.00284ZM14.1447 8.78409L13.6966 10.7333L13.7066 10.7355L14.1447 8.78409ZM11.7186 5.92045L9.74471 5.59819L9.74447 5.59966L11.7186 5.92045ZM12.519 4.22017L11.0208 2.89524L11.0202 2.89591L12.519 4.22017ZM14.1596 3.08665L14.9104 4.94039L14.9151 4.93847L14.1596 3.08665ZM18.4352 3.09162L17.5451 4.88262L17.5493 4.88472L18.4352 3.09162ZM19.6333 4.25L17.835 5.12521L17.8397 5.13485L19.6333 4.25ZM19.8322 6V8C20.8087 8 21.6424 7.29488 21.8045 6.33196L19.8322 6ZM19.1791 6.18107C19.2487 5.4151 19.0695 4.50929 18.3503 3.80273L15.547 6.65608C15.4017 6.51324 15.2961 6.33556 15.2395 6.15289C15.1867 5.98214 15.192 5.85827 15.1955 5.81893L19.1791 6.18107ZM18.3629 3.81519C17.6135 3.06577 16.6343 2.94602 15.9941 2.94602V6.94602C16.0875 6.94602 16.0763 6.95707 15.9992 6.93416C15.9153 6.90925 15.7258 6.83498 15.5345 6.64362L18.3629 3.81519ZM15.9941 2.94602C15.5693 2.94602 15.0939 2.99346 14.6262 3.15471L15.9302 6.9362C15.884 6.95215 15.8627 6.95379 15.8765 6.95186C15.89 6.95 15.9275 6.94602 15.9941 6.94602V2.94602ZM14.6161 3.15825C14.1989 3.30464 13.7413 3.55199 13.3597 3.96936L16.3118 6.66843C16.1423 6.85379 15.9798 6.91885 15.9404 6.93266L14.6161 3.15825ZM13.3386 3.99282C12.9903 4.38601 12.7616 4.86059 12.6714 5.37891L16.6123 6.06427C16.5752 6.27767 16.4757 6.48379 16.3329 6.64497L13.3386 3.99282ZM12.7016 5.23652C12.5958 5.65975 12.5765 6.16312 12.7495 6.68217L16.5442 5.41726C16.6509 5.73745 16.6283 6.02207 16.5822 6.20666L12.7016 5.23652ZM12.7768 6.75903C12.9672 7.26094 13.2887 7.62486 13.6013 7.87495L16.1001 4.75147C16.2138 4.84247 16.3994 5.03072 16.5168 5.34041L12.7768 6.75903ZM13.6263 7.89466C13.9304 8.13003 14.2549 8.2871 14.5429 8.39656L15.9638 4.65742C15.9463 4.65078 15.9488 4.65059 15.9662 4.6598C15.9833 4.66886 16.0227 4.69126 16.075 4.73176L13.6263 7.89466ZM14.5552 8.40115C14.8383 8.50665 15.1367 8.58752 15.4359 8.65163L16.274 4.74042C16.1092 4.7051 16.0065 4.67328 15.9516 4.65282L14.5552 8.40115ZM15.4159 8.64724L16.2114 8.82622L17.0894 4.92378L16.294 4.7448L15.4159 8.64724ZM16.2216 8.82849C16.6429 8.92099 16.9151 9.02626 17.0789 9.11333L18.9563 5.58128C18.3843 5.27724 17.745 5.06765 17.0792 4.92151L16.2216 8.82849ZM17.0979 9.12329C17.2765 9.21582 17.329 9.28049 17.3308 9.28277L20.4543 6.78399C20.0319 6.25596 19.501 5.86325 18.9373 5.57131L17.0979 9.12329ZM17.3308 9.28277C17.3421 9.29683 17.3452 9.30372 17.3455 9.30437C17.3459 9.30522 17.3464 9.30628 17.3469 9.308C17.3475 9.30974 17.3486 9.31333 17.3498 9.31933L21.2706 8.52726C21.1403 7.88237 20.8624 7.29409 20.4543 6.78399L17.3308 9.28277ZM17.3537 9.3383C17.3626 9.38012 17.3747 9.47936 17.3438 9.66017L21.2866 10.3342C21.3882 9.73939 21.397 9.12272 21.2667 8.50829L17.3537 9.3383ZM17.3429 9.66519C17.2856 10.0057 17.1704 10.22 17.0321 10.3774L20.0371 13.0175C20.7142 12.2469 21.1194 11.3277 21.2874 10.3291L17.3429 9.66519ZM17.0321 10.3774C16.8719 10.5598 16.6327 10.7376 16.2469 10.8799L17.6306 14.6329C18.5573 14.2913 19.3821 13.7631 20.0371 13.0175L17.0321 10.3774ZM16.2469 10.8799C15.8569 11.0237 15.3403 11.1193 14.6618 11.1193V15.1193C15.7067 15.1193 16.7081 14.973 17.6306 14.6329L16.2469 10.8799ZM14.6618 11.1193C13.968 11.1193 13.5008 11.015 13.1965 10.8857L11.6327 14.5674C12.5613 14.9618 13.5922 15.1193 14.6618 15.1193V11.1193ZM13.2084 10.8908C12.98 10.7921 12.9099 10.6957 12.8667 10.6104L9.29773 12.4166C9.80475 13.4184 10.6229 14.1308 11.6208 14.5623L13.2084 10.8908ZM12.8732 10.6234C12.8503 10.5773 12.7588 10.3426 12.857 9.74425L8.90973 9.09666C8.72948 10.1953 8.77054 11.3559 9.29119 12.4036L12.8732 10.6234ZM10.8833 11.4205H13.5083V7.42045H10.8833V11.4205ZM11.5244 9.16719C11.4505 9.74674 11.4863 10.4352 11.8189 11.1004L15.3966 9.31154C15.5171 9.55254 15.4867 9.71727 15.4922 9.67372L11.5244 9.16719ZM11.8189 11.1004C12.1467 11.7559 12.6725 12.221 13.2769 12.5019L14.9628 8.87454C15.0187 8.9005 15.1004 8.94851 15.1865 9.02963C15.2743 9.11232 15.3458 9.20978 15.3966 9.31154L11.8189 11.1004ZM13.2769 12.5019C13.8523 12.7694 14.4548 12.8523 14.9998 12.8523V8.85227C14.9261 8.85227 14.8897 8.8464 14.8829 8.84514C14.8768 8.84399 14.908 8.84907 14.9628 8.87454L13.2769 12.5019ZM14.9998 12.8523C15.4509 12.8523 15.9381 12.7984 16.4156 12.6343L15.1153 8.85152C15.1447 8.84141 15.1528 8.84207 15.1321 8.84503C15.1114 8.84799 15.0687 8.85227 14.9998 8.85227V12.8523ZM16.4156 12.6343C16.8551 12.4832 17.3243 12.2317 17.7185 11.8162L14.8166 9.06311C14.9656 8.90609 15.1 8.85678 15.1153 8.85152L16.4156 12.6343ZM17.7185 11.8162C18.1007 11.4133 18.3719 10.9023 18.4662 10.3131L14.5164 9.68118C14.5576 9.4235 14.6797 9.20741 14.8167 9.06311L17.7185 11.8162ZM18.4617 10.3398C18.5685 9.72581 18.4637 9.06188 18.0759 8.48009L14.7477 10.6989C14.6461 10.5466 14.5675 10.3648 14.5283 10.1639C14.4897 9.9659 14.4972 9.79042 14.5209 9.65448L18.4617 10.3398ZM18.0759 8.48009C17.7022 7.91962 17.1767 7.61584 16.8155 7.44957L15.1429 11.0831C15.1531 11.0878 15.1131 11.0709 15.0469 11.0214C14.981 10.9722 14.8619 10.8703 14.7477 10.6989L18.0759 8.48009ZM16.8155 7.44957C16.42 7.2675 15.9755 7.14264 15.5455 7.04881L14.6928 10.9569C14.8337 10.9876 14.9418 11.0162 15.0218 11.0406C15.0612 11.0527 15.0908 11.0629 15.112 11.0708C15.1224 11.0746 15.1301 11.0777 15.1354 11.0799C15.1408 11.0821 15.1432 11.0832 15.1429 11.0831L16.8155 7.44957ZM15.5572 7.05141L14.5828 6.83266L13.7066 10.7355L14.6811 10.9543L15.5572 7.05141ZM14.5928 6.83493C13.9614 6.68978 13.7104 6.49947 13.626 6.41183L10.7458 9.1876C11.543 10.0147 12.5979 10.4807 13.6966 10.7333L14.5928 6.83493ZM13.626 6.41183C13.6346 6.42084 13.6482 6.43761 13.6608 6.46053C13.6733 6.48327 13.6783 6.50004 13.6793 6.50421C13.6809 6.51039 13.661 6.43596 13.6927 6.24125L9.74447 5.59966C9.54412 6.83257 9.75263 8.15705 10.7458 9.1876L13.626 6.41183ZM13.6924 6.24272C13.739 5.95759 13.8449 5.74007 14.0178 5.54443L11.0202 2.89591C10.338 3.66807 9.91028 4.58408 9.74471 5.59819L13.6924 6.24272ZM14.0172 5.5451C14.2234 5.31192 14.5052 5.10449 14.9104 4.94039L13.4089 1.23291C12.4883 1.60574 11.6763 2.15399 11.0208 2.89524L14.0172 5.5451ZM14.9151 4.93847C15.3135 4.77595 15.7903 4.67898 16.372 4.67898V0.678977C15.3362 0.678977 14.3382 0.853781 13.4042 1.23482L14.9151 4.93847ZM16.372 4.67898C16.9825 4.67898 17.3439 4.78262 17.5451 4.88261L19.3253 1.30062C18.4195 0.850425 17.4054 0.678977 16.372 0.678977V4.67898ZM17.5493 4.88472C17.7603 4.98894 17.8108 5.07552 17.835 5.12519L21.4317 3.37481C20.972 2.43016 20.2238 1.74449 19.3211 1.29852L17.5493 4.88472ZM17.8397 5.13485C17.8607 5.1774 17.9188 5.31814 17.86 5.66804L21.8045 6.33196C21.971 5.34284 21.8965 4.31692 21.427 3.36515L17.8397 5.13485ZM19.8322 4H17.1873V8H19.8322V4ZM23.9215 2.81818L25.8821 3.21363C26.0006 2.62571 25.8491 2.0156 25.4693 1.55147C25.0894 1.08734 24.5213 0.818182 23.9215 0.818182V2.81818ZM22.5096 9.81818V11.8182C23.4617 11.8182 24.2819 11.147 24.4701 10.2136L22.5096 9.81818ZM20.2625 9.81818L18.2786 9.56456C18.2057 10.1346 18.3816 10.7084 18.7612 11.1397C19.1409 11.571 19.6878 11.8182 20.2625 11.8182V9.81818ZM21.1573 2.81818V0.818182C20.1508 0.818182 19.3011 1.56617 19.1735 2.56456L21.1573 2.81818ZM19.989 12.7564L18.4952 14.0863C18.5009 14.0927 18.5066 14.099 18.5124 14.1054L19.989 12.7564ZM19.6857 11.767L17.6967 11.5577L17.6962 11.563L19.6857 11.767ZM20.1978 10.7976L18.8762 9.29646L18.8681 9.30367L20.1978 10.7976ZM22.1566 10.7976L20.68 12.1466L20.6891 12.1564L22.1566 10.7976ZM22.4698 11.767L20.4808 11.5577L20.4803 11.563L22.4698 11.767ZM22.1964 12.473L20.5844 11.2892L20.5811 11.2936L22.1964 12.473ZM21.6296 12.9751L22.5965 14.7259L22.6053 14.721L21.6296 12.9751ZM21.961 2.42274L20.5491 9.42274L24.4701 10.2136L25.8821 3.21363L21.961 2.42274ZM22.5096 7.81818H20.2625V11.8182H22.5096V7.81818ZM22.2463 10.0718L23.1412 3.0718L19.1735 2.56456L18.2786 9.56456L22.2463 10.0718ZM21.1573 4.81818H23.9215V0.818182H21.1573V4.81818ZM20.9386 11.1591C20.9787 11.1591 21.0728 11.1669 21.1912 11.2171C21.3127 11.2687 21.4058 11.342 21.4656 11.4074L18.5124 14.1054C19.164 14.8186 20.031 15.1591 20.9386 15.1591V11.1591ZM21.4828 11.4265C21.5424 11.4935 21.6055 11.5938 21.6439 11.7191C21.6813 11.841 21.6792 11.9336 21.6753 11.9711L17.6962 11.563C17.6037 12.4643 17.8513 13.3629 18.4952 14.0863L21.4828 11.4265ZM21.6748 11.9764C21.669 12.0307 21.6504 12.1028 21.6121 12.1754C21.5747 12.2462 21.5366 12.2835 21.5276 12.2915L18.8681 9.30367C18.22 9.88055 17.7921 10.6515 17.6967 11.5577L21.6748 11.9764ZM21.5194 12.2987C21.5118 12.3054 21.475 12.3348 21.409 12.3604C21.3416 12.3865 21.2792 12.3949 21.2369 12.3949V8.39489C20.3378 8.39489 19.5273 8.72323 18.8762 9.29648L21.5194 12.2987ZM21.2369 12.3949C21.1723 12.3949 21.0643 12.3818 20.9406 12.3276C20.8163 12.2732 20.7295 12.2007 20.6801 12.1466L23.6332 9.44861C23.004 8.75988 22.159 8.39489 21.2369 8.39489V12.3949ZM20.6891 12.1564C20.6314 12.094 20.5622 11.9923 20.5182 11.8562C20.4749 11.7221 20.475 11.6134 20.4808 11.5577L24.4588 11.9764C24.5563 11.0502 24.2813 10.1485 23.6241 9.43877L20.6891 12.1564ZM20.4803 11.563C20.4847 11.52 20.4958 11.4688 20.5166 11.4151C20.5373 11.3615 20.5625 11.319 20.5844 11.2892L23.8084 13.6568C24.1722 13.1614 24.3961 12.5887 24.4594 11.9711L20.4803 11.563ZM20.5811 11.2936C20.5875 11.2849 20.5985 11.272 20.6141 11.2582C20.6297 11.2444 20.6441 11.2348 20.654 11.2293L22.6053 14.721C23.0825 14.4543 23.4895 14.0936 23.8117 13.6524L20.5811 11.2936ZM20.6628 11.2244C20.6854 11.2119 20.7236 11.1943 20.7759 11.1804C20.8287 11.1663 20.8844 11.1591 20.9386 11.1591V15.1591C21.5367 15.1591 22.0977 15.0014 22.5965 14.7259L20.6628 11.2244Z" fill="#283BE6" mask="url(#path-1-outside-1_178_1542)"/>
</svg>
