<svg width="354" height="354" viewBox="0 0 354 354" fill="none" xmlns="http://www.w3.org/2000/svg">
<path d="M176.777 51.7767L204.841 138.15H295.659L222.186 191.531L250.25 277.904L176.777 224.522L103.304 277.904L131.368 191.531L57.8948 138.15H148.713L176.777 51.7767Z" fill="#283BE6"/>
<path d="M265.165 88.3883L223.935 169.308L288.153 233.526L198.453 219.318L157.223 300.238L143.016 210.538L53.3158 196.331L134.235 155.101L120.028 65.4009L184.246 129.619L265.165 88.3883Z" fill="#283BE6"/>
<path d="M301.669 181.969L214.205 206.421L210.433 297.161L160.15 221.534L72.6855 245.986L129.073 174.794L78.7891 99.1665L163.922 130.794L220.309 59.6017L216.537 150.341L301.669 181.969Z" fill="#283BE6"/>
</svg>
